#!OML:ASF I:\Actors\actors\Patient Classification 1\Patient 1\Session 1\Subject1.ASF
:FULLY-SPECIFIED
:DEGREES
1350
root 0.733068 17.5709 8.15983 15.2596 -5.62431 -6.69713
lowerback 3.91443 0.832699 9.31296
upperback -8.57434 2.35527 3.56377
thorax -11.3017 0.513984 -1.64367
lowerneck -14.0201 -0.681807 -0.419226
upperneck 23.1515 -0.767922 -0.437778
head 9.63357 -0.449675 -0.177001
rclavicle 1.51325e-014 -3.73715e-014
rhumerus -10.8872 36.1107 -92.9606
rradius 81.1853
rwrist 46.3394
rhand -1.3311 143.268
rfingers 7.12502
rthumb 24.3148 -548.254
lclavicle 1.51325e-014 -3.73715e-014
lhumerus -22.1565 -19.5929 98.4469
lradius 67.3208
lwrist -40.8496
lhand -38.3779 -16.0815
lfingers 7.12502
lthumb -11.4037 13.5884
rfemur -14.0128 26.1037 16.5223
rtibia 5.22568
rfoot -11.7789 -28.0372
rtoes 4.61947
lfemur -7.19565 -27.7668 -10.5666
ltibia -0.786786
lfoot -14.3044 41.8262
ltoes 6.092
1351
root 0.735017 17.5729 8.15155 15.1287 -5.78036 -6.75331
lowerback 4.01515 1.03211 8.88781
upperback -8.57288 2.57903 3.36446
thorax -11.3341 0.647363 -1.65807
lowerneck -14.1132 -0.971596 -0.530456
upperneck 23.309 -1.25293 -0.0162377
head 9.7106 -0.636542 -0.0729579
rclavicle 3.13086e-015 -2.3059e-014
rhumerus -10.8386 36.4001 -93.1942
rradius 82.4244
rwrist 46.8155
rhand -5.333 129.587
rfingers 7.12502
rthumb 20.4734 -561.472
lclavicle 3.13086e-015 -2.3059e-014
lhumerus -21.9396 -19.9861 98.4686
lradius 67.4907
lwrist -41.0283
lhand -38.0802 -16.0222
lfingers 7.12502
lthumb -11.1166 13.6633
rfemur -13.9423 26.0051 16.6285
rtibia 5.30983
rfoot -11.7282 -27.7542
rtoes 4.46227
lfemur -6.94005 -27.9817 -10.6338
ltibia -0.887056
lfoot -14.4348 42.1584
ltoes 6.41668
1352
root 0.735672 17.5744 8.143 14.9874 -5.92669 -6.80646
lowerback 4.13065 1.19617 8.43394
upperback -8.59607 2.75616 3.17884
thorax -11.4123 0.759328 -1.6359
lowerneck -13.901 -1.17156 -0.647882
upperneck 23.2196 -1.64299 0.531719
head 9.64604 -0.766177 0.0903933
rclavicle -2.04251e-014 3.10104e-014
rhumerus -10.7998 36.2781 -93.3987
rradius 83.3998
rwrist 47.8603
rhand -8.75963 109.555
rfingers 7.12502
rthumb 17.1778 -581.184
lclavicle -2.04251e-014 3.10104e-014
lhumerus -21.8539 -20.2366 98.49
lradius 67.7651
lwrist -41.2549
lhand -37.7023 -15.8616
lfingers 7.12502
lthumb -10.7521 13.8433
rfemur -13.8533 25.9533 16.7365
rtibia 5.35959
rfoot -11.6074 -27.5461
rtoes 4.26413
lfemur -6.71027 -28.112 -10.6944
ltibia -0.936469
lfoot -14.5561 42.3754
ltoes 6.70995
1353
root 0.738064 17.575 8.135 14.8871 -5.9493 -6.88658
lowerback 4.20248 1.30037 8.07222
upperback -8.67833 2.86144 3.01313
thorax -11.5399 0.826877 -1.63204
lowerneck -13.6906 -1.33808 -0.692084
upperneck 23.2915 -1.98639 1.0016
head 9.63983 -0.877011 0.219772
rclavicle -1.25483e-014 5.20816e-014
rhumerus -10.9037 35.8645 -93.6519
rradius 84.0605
rwrist 49.1543
rhand -9.68141 91.1565
rfingers 7.12502
rthumb 16.2904 -599.508
lclavicle -1.25483e-014 5.20816e-014
lhumerus -21.9536 -20.3694 98.5778
lradius 68.1093
lwrist -41.1594
lhand -37.5815 -15.9611
lfingers 7.12502
lthumb -10.6356 13.7497
rfemur -13.7398 25.8622 16.889
rtibia 5.31685
rfoot -11.4126 -27.4455
rtoes 3.88395
lfemur -6.58241 -28.1681 -10.6832
ltibia -0.944251
lfoot -14.5066 42.4631
ltoes 6.73354
1354
root 0.742737 17.5765 8.12811 14.7961 -5.81159 -6.96671
lowerback 4.24555 1.34965 7.81352
upperback -8.76495 2.89842 2.84511
thorax -11.6595 0.852772 -1.67772
lowerneck -13.5676 -1.5055 -0.739361
upperneck 23.4072 -2.33001 1.46584
head 9.66783 -0.988396 0.347259
rclavicle -1.0958e-014 -1.27222e-014
rhumerus -11.3209 35.8455 -94.0323
rradius 84.3721
rwrist 49.3639
rhand -8.9325 -76.856
rfingers 7.12502
rthumb 17.0114 -613.869
lclavicle -1.0958e-014 -1.27222e-014
lhumerus -22.0813 -20.4996 98.6912
lradius 68.4478
lwrist -40.8347
lhand -37.7525 -16.0631
lfingers 7.12502
lthumb -10.8005 13.6392
rfemur -13.5584 25.8086 17.0476
rtibia 5.18571
rfoot -11.3363 -27.5115
rtoes 3.93479
lfemur -6.54611 -28.2545 -10.6192
ltibia -0.903771
lfoot -14.3629 42.4478
ltoes 6.58885
1355
root 0.747552 17.5775 8.12145 14.7164 -5.62752 -7.09838
lowerback 4.28995 1.37122 7.61137
upperback -8.8265 2.90284 2.69572
thorax -11.7537 0.860468 -1.73025
lowerneck -13.567 -1.70078 -0.834091
upperneck 23.5364 -2.71421 1.97552
head 9.72813 -1.11658 0.492761
rclavicle -6.18717e-015 -3.18055e-015
rhumerus -12.0089 36.3598 -94.5446
rradius 84.3532
rwrist 48.4391
rhand -11.6856 -63.9916
rfingers 7.12502
rthumb 14.3599 -626.525
lclavicle -6.18717e-015 -3.18055e-015
lhumerus -22.1699 -20.6752 98.7614
lradius 68.7906
lwrist -40.4307
lhand -37.9801 -15.9123
lfingers 7.12502
lthumb -11.0201 13.7785
rfemur -13.3646 25.8086 17.2555
rtibia 5.02643
rfoot -11.3528 -27.6559
rtoes 4.21052
lfemur -6.56774 -28.2705 -10.4549
ltibia -0.831685
lfoot -14.1897 42.3199
ltoes 6.36045
1356
root 0.749767 17.5783 8.11623 14.6483 -5.5844 -7.24264
lowerback 4.30856 1.43698 7.3065
upperback -8.87227 2.95444 2.57057
thorax -11.8141 0.903261 -1.70557
lowerneck -13.5521 -1.91069 -0.882585
upperneck 23.6248 -3.116 2.4268
head 9.7727 -1.25548 0.608187
rclavicle 1.22874e-014 2.38542e-015
rhumerus -12.6415 35.9931 -94.8937
rradius 84.0047
rwrist 48.3821
rhand -12.9948 -63.7653
rfingers 7.12502
rthumb 13.0982 -626.666
lclavicle 1.22874e-014 2.38542e-015
lhumerus -22.3125 -20.8537 98.8739
lradius 69.1651
lwrist -40.0298
lhand -37.9223 -15.6197
lfingers 7.12502
lthumb -10.9644 14.074
rfemur -13.205 25.8379 17.4661
rtibia 4.89023
rfoot -11.2884 -27.7149
rtoes 4.14306
lfemur -6.535 -28.2438 -10.3096
ltibia -0.784458
lfoot -14.1304 42.2731
ltoes 6.1917
1357
root 0.748766 17.5775 8.11183 14.6187 -5.65885 -7.35709
lowerback 4.25408 1.54666 6.86553
upperback -8.91707 3.04792 2.48656
thorax -11.832 0.982833 -1.56449
lowerneck -13.4899 -2.09391 -0.984869
upperneck 23.6308 -3.47688 2.92436
head 9.78243 -1.37606 0.754325
rclavicle -1.97542e-015 1.13307e-014
rhumerus -13.2962 34.9241 -95.0626
rradius 83.5247
rwrist 49.6852
rhand -12.5833 -63.9528
rfingers 7.12502
rthumb 13.4948 -626.504
lclavicle -1.97542e-015 1.13307e-014
lhumerus -22.474 -20.9225 99.082
lradius 69.5088
lwrist -39.8645
lhand -37.6128 -15.3177
lfingers 7.12502
lthumb -10.6658 14.3916
rfemur -13.0992 25.8632 17.6242
rtibia 4.75623
rfoot -11.1301 -27.6888
rtoes 3.95874
lfemur -6.46882 -28.2636 -10.2173
ltibia -0.787996
lfoot -14.2813 42.3501
ltoes 6.37663
1358
root 0.748945 17.5712 8.10599 14.7574 -5.67567 -7.49589
lowerback 4.022 1.64139 6.50098
upperback -8.98113 3.11691 2.43699
thorax -11.7662 1.04849 -1.41865
lowerneck -13.5247 -2.26171 -1.24381
upperneck 23.6343 -3.80959 3.54529
head 9.8174 -1.48244 0.97246
rclavicle -1.35298e-014 1.11916e-013
rhumerus -14.5046 35.6664 -95.6291
rradius 82.7242
rwrist 48.1452
rhand -15.6691 -63.473
rfingers 7.12502
rthumb 10.5194 -626.81
lclavicle -1.35298e-014 1.11916e-013
lhumerus -22.5218 -20.8974 99.276
lradius 69.7602
lwrist -39.9384
lhand -37.3387 -15.2937
lfingers 7.12502
lthumb -10.4014 14.4291
rfemur -13.2042 25.8059 17.7252
rtibia 4.63147
rfoot -10.9591 -27.6721
rtoes 3.58636
lfemur -6.62809 -28.3524 -9.97666
ltibia -0.795686
lfoot -14.4585 42.4408
ltoes 6.9068
1359
root 0.749204 17.5797 8.10784 14.3287 -5.36803 -7.60746
lowerback 4.26287 1.59412 6.26876
upperback -8.86475 3.04156 2.3982
thorax -11.7897 1.0321 -1.3302
lowerneck -13.7171 -2.4687 -1.67024
upperneck 23.6946 -4.17424 4.22479
head 9.9122 -1.6086 1.23404
rclavicle -2.85132e-015 3.16068e-014
rhumerus -15.3508 35.3714 -95.8529
rradius 81.8685
rwrist 47.9516
rhand -16.8715 -63.9206
rfingers 7.12502
rthumb 9.35936 -626.307
lclavicle -2.85132e-015 3.16068e-014
lhumerus -22.5008 -20.9155 99.4558
lradius 69.9707
lwrist -39.9524
lhand -36.9334 -15.4243
lfingers 7.12502
lthumb -10.0104 14.3176
rfemur -12.3645 26.0493 18.1681
rtibia 4.23444
rfoot -11.022 -28.1826
rtoes 3.49912
lfemur -6.11188 -28.5352 -10.0556
ltibia -0.879523
lfoot -14.2728 42.2478
ltoes 6.94551
